<svg width="171" height="31" viewBox="0 0 171 31" fill="none" xmlns="http://www.w3.org/2000/svg">
<rect width="30.7841" height="30.7841" rx="5.86364" fill="#DA291C"/>
<path d="M21.2611 4.48564L17.2096 8.43933L18.2759 9.47755L22.3274 5.52386L21.2611 4.48564Z" fill="white"/>
<path d="M15.4348 3.66504H13.9339V7.90309H15.4348V3.66504Z" fill="white"/>
<path d="M23.4563 11.1174H19.0176V12.5825H23.4563V11.1174Z" fill="white"/>
<path d="M15.7883 13.9528C15.4327 14.3156 14.9986 14.4869 14.4817 14.4869C13.9814 14.4869 13.5452 14.3156 13.1917 13.9528C12.8361 13.5901 12.6417 13.1649 12.6417 12.6772C12.6417 12.1573 12.8361 11.732 13.1917 11.3854C13.5452 11.0227 13.9814 10.8494 14.4817 10.8655C14.9986 10.8494 15.4327 11.0227 15.8049 11.3854C16.1439 11.732 16.3217 12.1573 16.3383 12.6772C16.3217 13.1649 16.1439 13.5901 15.7883 13.9528ZM16.9667 10.2347C16.2742 9.5576 15.4348 9.22509 14.4817 9.22509C13.5307 9.22509 12.7058 9.5576 12.0298 10.2347C11.3351 10.9118 10.9961 11.73 10.9961 12.6752C10.9961 13.6203 11.3331 14.4385 12.0298 15.1015C12.7058 15.7807 13.5307 16.1253 14.4817 16.1253C15.4327 16.1253 16.2721 15.7807 16.9667 15.1015C17.6449 14.4405 17.9839 13.6203 17.9839 12.6752C17.9839 11.732 17.6449 10.9139 16.9667 10.2347Z" fill="white"/>
<path d="M7.32812 23.821C7.32812 19.9754 10.4456 16.8579 14.2912 16.8579C18.1368 16.8579 21.2543 19.9754 21.2543 23.821V24.0042C21.2543 25.3198 20.1878 26.3863 18.8722 26.3863H9.71023C8.39463 26.3863 7.32812 25.3198 7.32812 24.0042V23.821Z" fill="white"/>
<path d="M44.3496 10.8608H45.8379L48.0293 17.1245L50.2207 10.8608H51.709L48.627 19.3921H47.4316L44.3496 10.8608ZM43.5469 10.8608H45.0293L45.2988 16.9663V19.3921H43.5469V10.8608ZM51.0293 10.8608H52.5176V19.3921H50.7598V16.9663L51.0293 10.8608ZM56.9277 10.8608V19.3921H55.1758V10.8608H56.9277ZM68.5078 16.562H70.2598C70.2246 17.1362 70.0664 17.646 69.7852 18.0913C69.5078 18.5366 69.1191 18.8843 68.6191 19.1343C68.123 19.3843 67.5254 19.5093 66.8262 19.5093C66.2793 19.5093 65.7891 19.4155 65.3555 19.228C64.9219 19.0366 64.5508 18.7632 64.2422 18.4077C63.9375 18.0522 63.7051 17.6226 63.5449 17.1187C63.3848 16.6147 63.3047 16.0503 63.3047 15.4253V14.8335C63.3047 14.2085 63.3867 13.644 63.5508 13.1401C63.7188 12.6323 63.957 12.2007 64.2656 11.8452C64.5781 11.4897 64.9512 11.2163 65.3848 11.0249C65.8184 10.8335 66.3027 10.7378 66.8379 10.7378C67.5488 10.7378 68.1484 10.8667 68.6367 11.1245C69.1289 11.3823 69.5098 11.7378 69.7793 12.1909C70.0527 12.644 70.2168 13.1597 70.2715 13.7378H68.5137C68.4941 13.394 68.4258 13.103 68.3086 12.8647C68.1914 12.6226 68.0137 12.4409 67.7754 12.3198C67.541 12.1948 67.2285 12.1323 66.8379 12.1323C66.5449 12.1323 66.2891 12.187 66.0703 12.2964C65.8516 12.4058 65.668 12.5718 65.5195 12.7944C65.3711 13.0171 65.2598 13.2983 65.1855 13.6382C65.1152 13.9741 65.0801 14.3687 65.0801 14.8218V15.4253C65.0801 15.8667 65.1133 16.2554 65.1797 16.5913C65.2461 16.9233 65.3477 17.2046 65.4844 17.4351C65.625 17.6616 65.8047 17.8335 66.0234 17.9507C66.2461 18.064 66.5137 18.1206 66.8262 18.1206C67.1934 18.1206 67.4961 18.062 67.7344 17.9448C67.9727 17.8276 68.1543 17.6538 68.2793 17.4233C68.4082 17.1929 68.4844 16.9058 68.5078 16.562ZM77.8984 18.021V19.3921H73.6035V18.021H77.8984ZM74.1719 10.8608V19.3921H72.4141V10.8608H74.1719ZM83.4922 12.3198L81.1719 19.3921H79.3027L82.4727 10.8608H83.6621L83.4922 12.3198ZM85.4199 19.3921L83.0938 12.3198L82.9062 10.8608H84.1074L87.2949 19.3921H85.4199ZM85.3145 16.2163V17.5933H80.8086V16.2163H85.3145ZM89.0859 10.8608H92.2676C92.9199 10.8608 93.4805 10.9585 93.9492 11.1538C94.4219 11.3491 94.7852 11.6382 95.0391 12.021C95.293 12.4038 95.4199 12.8745 95.4199 13.4331C95.4199 13.8901 95.3418 14.2827 95.1855 14.6108C95.0332 14.9351 94.8164 15.2065 94.5352 15.4253C94.2578 15.6401 93.9316 15.812 93.5566 15.9409L93 16.2339H90.2344L90.2227 14.8628H92.2793C92.5879 14.8628 92.8438 14.8081 93.0469 14.6987C93.25 14.5894 93.4023 14.437 93.5039 14.2417C93.6094 14.0464 93.6621 13.8198 93.6621 13.562C93.6621 13.2886 93.6113 13.0522 93.5098 12.853C93.4082 12.6538 93.2539 12.5015 93.0469 12.396C92.8398 12.2905 92.5801 12.2378 92.2676 12.2378H90.8438V19.3921H89.0859V10.8608ZM93.8555 19.3921L91.9102 15.5894L93.7676 15.5776L95.7363 19.3101V19.3921H93.8555ZM104.781 14.9272V15.3315C104.781 15.98 104.693 16.562 104.518 17.0776C104.342 17.5933 104.094 18.0327 103.773 18.396C103.453 18.7554 103.07 19.0308 102.625 19.2222C102.184 19.4136 101.693 19.5093 101.154 19.5093C100.619 19.5093 100.129 19.4136 99.6836 19.2222C99.2422 19.0308 98.8594 18.7554 98.5352 18.396C98.2109 18.0327 97.959 17.5933 97.7793 17.0776C97.6035 16.562 97.5156 15.98 97.5156 15.3315V14.9272C97.5156 14.2749 97.6035 13.6929 97.7793 13.1812C97.9551 12.6655 98.2031 12.2261 98.5234 11.8628C98.8477 11.4995 99.2305 11.2222 99.6719 11.0308C100.117 10.8394 100.607 10.7437 101.143 10.7437C101.682 10.7437 102.172 10.8394 102.613 11.0308C103.059 11.2222 103.441 11.4995 103.762 11.8628C104.086 12.2261 104.336 12.6655 104.512 13.1812C104.691 13.6929 104.781 14.2749 104.781 14.9272ZM103.006 15.3315V14.9155C103.006 14.4624 102.965 14.064 102.883 13.7202C102.801 13.3765 102.68 13.0874 102.52 12.853C102.359 12.6187 102.164 12.4429 101.934 12.3257C101.703 12.2046 101.439 12.144 101.143 12.144C100.846 12.144 100.582 12.2046 100.352 12.3257C100.125 12.4429 99.9316 12.6187 99.7715 12.853C99.6152 13.0874 99.4961 13.3765 99.4141 13.7202C99.332 14.064 99.291 14.4624 99.291 14.9155V15.3315C99.291 15.7808 99.332 16.1792 99.4141 16.5269C99.4961 16.8706 99.6172 17.1616 99.7773 17.3999C99.9375 17.6343 100.133 17.812 100.363 17.9331C100.594 18.0542 100.857 18.1147 101.154 18.1147C101.451 18.1147 101.715 18.0542 101.945 17.9331C102.176 17.812 102.369 17.6343 102.525 17.3999C102.682 17.1616 102.801 16.8706 102.883 16.5269C102.965 16.1792 103.006 15.7808 103.006 15.3315ZM114.504 12.3198L112.184 19.3921H110.314L113.484 10.8608H114.674L114.504 12.3198ZM116.432 19.3921L114.105 12.3198L113.918 10.8608H115.119L118.307 19.3921H116.432ZM116.326 16.2163V17.5933H111.82V16.2163H116.326ZM123.42 16.3511H121.246V14.98H123.42C123.756 14.98 124.029 14.9253 124.24 14.8159C124.451 14.7026 124.605 14.5464 124.703 14.3472C124.801 14.1479 124.85 13.9233 124.85 13.6733C124.85 13.4194 124.801 13.1831 124.703 12.9644C124.605 12.7456 124.451 12.5698 124.24 12.437C124.029 12.3042 123.756 12.2378 123.42 12.2378H121.855V19.3921H120.098V10.8608H123.42C124.088 10.8608 124.66 10.9819 125.137 11.2241C125.617 11.4624 125.984 11.7925 126.238 12.2144C126.492 12.6362 126.619 13.1187 126.619 13.6616C126.619 14.2124 126.492 14.689 126.238 15.0913C125.984 15.4937 125.617 15.8042 125.137 16.0229C124.66 16.2417 124.088 16.3511 123.42 16.3511ZM132.154 16.3511H129.98V14.98H132.154C132.49 14.98 132.764 14.9253 132.975 14.8159C133.186 14.7026 133.34 14.5464 133.438 14.3472C133.535 14.1479 133.584 13.9233 133.584 13.6733C133.584 13.4194 133.535 13.1831 133.438 12.9644C133.34 12.7456 133.186 12.5698 132.975 12.437C132.764 12.3042 132.49 12.2378 132.154 12.2378H130.59V19.3921H128.832V10.8608H132.154C132.822 10.8608 133.395 10.9819 133.871 11.2241C134.352 11.4624 134.719 11.7925 134.973 12.2144C135.227 12.6362 135.354 13.1187 135.354 13.6616C135.354 14.2124 135.227 14.689 134.973 15.0913C134.719 15.4937 134.352 15.8042 133.871 16.0229C133.395 16.2417 132.822 16.3511 132.154 16.3511Z" fill="white"/>
</svg>
